<svg xmlns="http://www.w3.org/2000/svg" width="4784" height="728" viewBox="0 0 4784 728" fill="none">
  <path
    d="M0 205C0 91.7816 91.7816 0 205 0H4579C4692.22 0 4784 91.7816 4784 205C4784 318.218 4692.22 410 4579 410H205C91.7815 410 0 318.218 0 205Z"
    fill="#00CF6A"></path>
  <path
    d="M374.67 596.85C345.41 596.85 319.19 590.01 296.01 576.33C272.83 562.27 254.4 543.27 240.72 519.33C227.42 495.39 220.77 468.41 220.77 438.39C220.77 407.99 227.61 380.82 241.29 356.88C255.35 332.94 274.35 314.13 298.29 300.45C322.23 286.39 349.21 279.36 379.23 279.36C409.25 279.36 436.04 286.39 459.6 300.45C483.54 314.13 502.35 332.94 516.03 356.88C530.09 380.82 537.31 407.99 537.69 438.39V572.34C537.69 578.8 535.6 584.12 531.42 588.3C527.24 592.1 521.92 594 515.46 594C509 594 503.68 592.1 499.5 588.3C495.32 584.12 493.23 578.8 493.23 572.34V537.57C480.31 555.81 463.59 570.25 443.07 580.89C422.55 591.53 399.75 596.85 374.67 596.85ZM379.23 556.95C401.27 556.95 420.84 551.82 437.94 541.56C455.42 531.3 469.1 517.24 478.98 499.38C489.24 481.14 494.37 460.81 494.37 438.39C494.37 415.59 489.24 395.26 478.98 377.4C469.1 359.54 455.42 345.48 437.94 335.22C420.84 324.58 401.27 319.26 379.23 319.26C357.57 319.26 338 324.58 320.52 335.22C303.04 345.48 289.17 359.54 278.91 377.4C268.65 395.26 263.52 415.59 263.52 438.39C263.52 460.81 268.65 481.14 278.91 499.38C289.17 517.24 303.04 531.3 320.52 541.56C338 551.82 357.57 556.95 379.23 556.95ZM690.312 594C667.512 594 648.702 584.88 633.882 566.64C619.062 548.02 611.652 524.27 611.652 495.39V170.49C611.652 164.03 613.552 158.9 617.352 155.1C621.532 150.92 626.852 148.83 633.312 148.83C639.772 148.83 644.902 150.92 648.702 155.1C652.882 158.9 654.972 164.03 654.972 170.49V495.39C654.972 511.73 658.202 525.03 664.662 535.29C671.502 545.55 680.052 550.68 690.312 550.68H704.562C710.262 550.68 714.822 552.77 718.242 556.95C721.662 560.75 723.372 565.88 723.372 572.34C723.372 578.8 720.902 584.12 715.962 588.3C711.402 592.1 705.322 594 697.722 594H690.312ZM904.035 596.85C874.775 596.85 848.555 590.01 825.375 576.33C802.195 562.27 783.765 543.27 770.085 519.33C756.785 495.39 750.135 468.41 750.135 438.39C750.135 407.99 756.975 380.82 770.655 356.88C784.715 332.94 803.715 314.13 827.655 300.45C851.595 286.39 878.575 279.36 908.595 279.36C938.615 279.36 965.405 286.39 988.965 300.45C1012.91 314.13 1031.72 332.94 1045.4 356.88C1059.46 380.82 1066.68 407.99 1067.06 438.39V572.34C1067.06 578.8 1064.97 584.12 1060.79 588.3C1056.61 592.1 1051.29 594 1044.83 594C1038.37 594 1033.05 592.1 1028.87 588.3C1024.69 584.12 1022.6 578.8 1022.6 572.34V537.57C1009.68 555.81 992.955 570.25 972.435 580.89C951.915 591.53 929.115 596.85 904.035 596.85ZM908.595 556.95C930.635 556.95 950.205 551.82 967.305 541.56C984.785 531.3 998.465 517.24 1008.35 499.38C1018.61 481.14 1023.74 460.81 1023.74 438.39C1023.74 415.59 1018.61 395.26 1008.35 377.4C998.465 359.54 984.785 345.48 967.305 335.22C950.205 324.58 930.635 319.26 908.595 319.26C886.935 319.26 867.365 324.58 849.885 335.22C832.405 345.48 818.535 359.54 808.275 377.4C798.015 395.26 792.885 415.59 792.885 438.39C792.885 460.81 798.015 481.14 808.275 499.38C818.535 517.24 832.405 531.3 849.885 541.56C867.365 551.82 886.935 556.95 908.595 556.95ZM1291.5 596.85C1261.48 596.85 1234.69 590.01 1211.13 576.33C1187.95 562.27 1169.52 543.27 1155.84 519.33C1142.54 495.39 1135.89 468.41 1135.89 438.39C1135.89 407.99 1142.35 380.82 1155.27 356.88C1168.19 332.94 1185.86 314.13 1208.28 300.45C1230.7 286.39 1256.54 279.36 1285.8 279.36C1333.3 279.36 1371.87 297.6 1401.51 334.08C1405.69 338.64 1407.21 343.58 1406.07 348.9C1404.93 353.84 1401.7 358.21 1396.38 362.01C1392.2 365.05 1387.45 366.19 1382.13 365.43C1377.19 364.29 1372.82 361.44 1369.02 356.88C1346.98 331.8 1319.24 319.26 1285.8 319.26C1264.52 319.26 1245.71 324.39 1229.37 334.65C1213.41 344.91 1200.87 358.97 1191.75 376.83C1183.01 394.69 1178.64 415.21 1178.64 438.39C1178.64 461.19 1183.39 481.52 1192.89 499.38C1202.39 517.24 1215.69 531.3 1232.79 541.56C1249.89 551.82 1269.46 556.95 1291.5 556.95C1321.9 556.95 1346.41 548.78 1365.03 532.44C1369.59 528.64 1374.34 526.55 1379.28 526.17C1384.22 525.79 1388.78 527.31 1392.96 530.73C1397.52 534.91 1399.99 539.66 1400.37 544.98C1401.13 550.3 1399.42 554.86 1395.24 558.66C1367.5 584.12 1332.92 596.85 1291.5 596.85ZM1629.34 596.85C1600.08 596.85 1573.86 590.01 1550.68 576.33C1527.5 562.27 1509.07 543.27 1495.39 519.33C1482.09 495.39 1475.44 468.41 1475.44 438.39C1475.44 407.99 1482.28 380.82 1495.96 356.88C1510.02 332.94 1529.02 314.13 1552.96 300.45C1576.9 286.39 1603.88 279.36 1633.9 279.36C1663.92 279.36 1690.71 286.39 1714.27 300.45C1738.21 314.13 1757.02 332.94 1770.7 356.88C1784.76 380.82 1791.98 407.99 1792.36 438.39V572.34C1792.36 578.8 1790.27 584.12 1786.09 588.3C1781.91 592.1 1776.59 594 1770.13 594C1763.67 594 1758.35 592.1 1754.17 588.3C1749.99 584.12 1747.9 578.8 1747.9 572.34V537.57C1734.98 555.81 1718.26 570.25 1697.74 580.89C1677.22 591.53 1654.42 596.85 1629.34 596.85ZM1633.9 556.95C1655.94 556.95 1675.51 551.82 1692.61 541.56C1710.09 531.3 1723.77 517.24 1733.65 499.38C1743.91 481.14 1749.04 460.81 1749.04 438.39C1749.04 415.59 1743.91 395.26 1733.65 377.4C1723.77 359.54 1710.09 345.48 1692.61 335.22C1675.51 324.58 1655.94 319.26 1633.9 319.26C1612.24 319.26 1592.67 324.58 1575.19 335.22C1557.71 345.48 1543.84 359.54 1533.58 377.4C1523.32 395.26 1518.19 415.59 1518.19 438.39C1518.19 460.81 1523.32 481.14 1533.58 499.38C1543.84 517.24 1557.71 531.3 1575.19 541.56C1592.67 551.82 1612.24 556.95 1633.9 556.95ZM1899.38 594C1884.94 594 1877.72 586.78 1877.72 572.34V303.87C1877.72 289.43 1884.94 282.21 1899.38 282.21C1913.82 282.21 1921.04 289.43 1921.04 303.87V328.38C1932.44 313.18 1946.5 301.21 1963.22 292.47C1979.94 283.35 1998.37 278.79 2018.51 278.79C2035.99 278.79 2049.48 281.26 2058.98 286.2C2068.48 291.14 2072.09 298.36 2069.81 307.86C2067.91 316.6 2063.35 321.16 2056.13 321.54C2049.29 321.54 2041.12 321.16 2031.62 320.4C2010.34 318.5 1991.34 320.78 1974.62 327.24C1958.28 333.32 1945.17 342.82 1935.29 355.74C1925.79 368.66 1921.04 384.05 1921.04 401.91V572.34C1921.04 586.78 1913.82 594 1899.38 594ZM2260.76 594C2240.62 594 2222.57 589.25 2206.61 579.75C2191.03 570.25 2178.68 557.33 2169.56 540.99C2160.44 524.27 2155.88 505.27 2155.88 483.99V331.8H2118.83C2113.13 331.8 2108.38 330.09 2104.58 326.67C2100.78 322.87 2098.88 318.31 2098.88 312.99C2098.88 307.29 2100.78 302.73 2104.58 299.31C2108.38 295.51 2113.13 293.61 2118.83 293.61H2155.88V205.26C2155.88 198.8 2157.78 193.48 2161.58 189.3C2165.76 185.12 2171.08 183.03 2177.54 183.03C2184 183.03 2189.32 185.12 2193.5 189.3C2197.68 193.48 2199.77 198.8 2199.77 205.26V293.61H2264.18C2269.88 293.61 2274.63 295.51 2278.43 299.31C2282.23 302.73 2284.13 307.29 2284.13 312.99C2284.13 318.31 2282.23 322.87 2278.43 326.67C2274.63 330.09 2269.88 331.8 2264.18 331.8H2199.77V483.99C2199.77 503.37 2205.47 519.33 2216.87 531.87C2228.27 544.03 2242.9 550.11 2260.76 550.11H2276.15C2282.23 550.11 2287.17 552.2 2290.97 556.38C2294.77 560.56 2296.67 565.88 2296.67 572.34C2296.67 578.8 2294.39 584.12 2289.83 588.3C2285.27 592.1 2279.57 594 2272.73 594H2260.76ZM2505.49 596.85C2476.23 596.85 2450.01 590.01 2426.83 576.33C2403.65 562.27 2385.22 543.27 2371.54 519.33C2358.24 495.39 2351.59 468.41 2351.59 438.39C2351.59 407.99 2358.43 380.82 2372.11 356.88C2386.17 332.94 2405.17 314.13 2429.11 300.45C2453.05 286.39 2480.03 279.36 2510.05 279.36C2540.07 279.36 2566.86 286.39 2590.42 300.45C2614.36 314.13 2633.17 332.94 2646.85 356.88C2660.91 380.82 2668.13 407.99 2668.51 438.39V572.34C2668.51 578.8 2666.42 584.12 2662.24 588.3C2658.06 592.1 2652.74 594 2646.28 594C2639.82 594 2634.5 592.1 2630.32 588.3C2626.14 584.12 2624.05 578.8 2624.05 572.34V537.57C2611.13 555.81 2594.41 570.25 2573.89 580.89C2553.37 591.53 2530.57 596.85 2505.49 596.85ZM2510.05 556.95C2532.09 556.95 2551.66 551.82 2568.76 541.56C2586.24 531.3 2599.92 517.24 2609.8 499.38C2620.06 481.14 2625.19 460.81 2625.19 438.39C2625.19 415.59 2620.06 395.26 2609.8 377.4C2599.92 359.54 2586.24 345.48 2568.76 335.22C2551.66 324.58 2532.09 319.26 2510.05 319.26C2488.39 319.26 2468.82 324.58 2451.34 335.22C2433.86 345.48 2419.99 359.54 2409.73 377.4C2399.47 395.26 2394.34 415.59 2394.34 438.39C2394.34 460.81 2399.47 481.14 2409.73 499.38C2419.99 517.24 2433.86 531.3 2451.34 541.56C2468.82 551.82 2488.39 556.95 2510.05 556.95ZM2895.8 596.85C2865.78 596.85 2838.8 590.01 2814.86 576.33C2790.92 562.27 2771.92 543.27 2757.86 519.33C2744.18 495.39 2737.34 468.22 2737.34 437.82C2737.34 407.8 2743.99 380.82 2757.29 356.88C2770.97 332.94 2789.4 314.13 2812.58 300.45C2835.76 286.39 2861.98 279.36 2891.24 279.36C2916.7 279.36 2939.69 284.87 2960.21 295.89C2980.73 306.53 2997.26 320.78 3009.8 338.64V171.06C3009.8 164.22 3011.89 158.9 3016.07 155.1C3020.25 150.92 3025.57 148.83 3032.03 148.83C3038.49 148.83 3043.81 150.92 3047.99 155.1C3052.17 158.9 3054.26 164.22 3054.26 171.06V440.1C3053.5 469.74 3046.09 496.53 3032.03 520.47C3018.35 544.03 2999.54 562.65 2975.6 576.33C2952.04 590.01 2925.44 596.85 2895.8 596.85ZM2895.8 556.95C2917.84 556.95 2937.41 551.82 2954.51 541.56C2971.99 530.92 2985.67 516.67 2995.55 498.81C3005.81 480.95 3010.94 460.62 3010.94 437.82C3010.94 415.4 3005.81 395.26 2995.55 377.4C2985.67 359.16 2971.99 344.91 2954.51 334.65C2937.41 324.39 2917.84 319.26 2895.8 319.26C2874.14 319.26 2854.57 324.39 2837.09 334.65C2819.61 344.91 2805.74 359.16 2795.48 377.4C2785.22 395.26 2780.09 415.4 2780.09 437.82C2780.09 460.62 2785.22 480.95 2795.48 498.81C2805.74 516.67 2819.61 530.92 2837.09 541.56C2854.57 551.82 2874.14 556.95 2895.8 556.95ZM3188.23 594C3181.39 594 3175.88 592.1 3171.7 588.3C3167.9 584.12 3166 578.61 3166 571.77V304.44C3166 297.6 3167.9 292.28 3171.7 288.48C3175.88 284.3 3181.39 282.21 3188.23 282.21C3194.69 282.21 3199.82 284.3 3203.62 288.48C3207.8 292.28 3209.89 297.6 3209.89 304.44V571.77C3209.89 578.61 3207.8 584.12 3203.62 588.3C3199.82 592.1 3194.69 594 3188.23 594ZM3187.66 222.93C3179.3 222.93 3172.08 219.89 3166 213.81C3159.92 207.73 3156.88 200.32 3156.88 191.58C3156.88 182.08 3159.92 174.67 3166 169.35C3172.46 163.65 3179.87 160.8 3188.23 160.8C3196.21 160.8 3203.24 163.65 3209.32 169.35C3215.78 174.67 3219.01 182.08 3219.01 191.58C3219.01 200.32 3215.97 207.73 3209.89 213.81C3203.81 219.89 3196.4 222.93 3187.66 222.93ZM3459.02 596.85C3429 596.85 3402.4 590.2 3379.22 576.9C3356.04 563.22 3337.8 544.41 3324.5 520.47C3311.58 496.53 3305.12 469.17 3305.12 438.39C3305.12 407.23 3311.96 379.68 3325.64 355.74C3339.32 331.8 3358.13 313.18 3382.07 299.88C3406.01 286.2 3433.18 279.36 3463.58 279.36C3494.36 279.36 3521.53 286.2 3545.09 299.88C3569.03 313.18 3587.65 331.8 3600.95 355.74C3614.63 379.68 3621.66 407.23 3622.04 438.39V554.67C3622.04 585.45 3615.2 613 3601.52 637.32C3587.84 662.02 3569.22 681.4 3545.66 695.46C3522.1 709.9 3495.12 717.12 3464.72 717.12C3434.7 717.12 3408.29 711.42 3385.49 700.02C3362.69 689 3343.88 673.8 3329.06 654.42C3324.88 649.86 3322.98 644.92 3323.36 639.6C3324.12 634.28 3326.97 629.91 3331.91 626.49C3336.85 623.07 3342.36 621.93 3348.44 623.07C3354.52 624.21 3359.27 627.06 3362.69 631.62C3373.71 645.3 3387.77 656.32 3404.87 664.68C3422.35 673.04 3442.49 677.22 3465.29 677.22C3486.57 677.22 3505.76 672.09 3522.86 661.83C3539.96 651.57 3553.45 637.13 3563.33 618.51C3573.59 599.89 3578.72 578.04 3578.72 552.96V526.74C3567.32 548.4 3551.17 565.5 3530.27 578.04C3509.75 590.58 3486 596.85 3459.02 596.85ZM3463.58 556.95C3486 556.95 3505.76 552.01 3522.86 542.13C3540.34 531.87 3554.02 517.81 3563.9 499.95C3573.78 482.09 3578.72 461.57 3578.72 438.39C3578.72 415.21 3573.78 394.69 3563.9 376.83C3554.02 358.59 3540.34 344.53 3522.86 334.65C3505.76 324.39 3486 319.26 3463.58 319.26C3441.16 319.26 3421.21 324.39 3403.73 334.65C3386.25 344.53 3372.57 358.59 3362.69 376.83C3352.81 394.69 3347.87 415.21 3347.87 438.39C3347.87 461.57 3352.81 482.09 3362.69 499.95C3372.57 517.81 3386.25 531.87 3403.73 542.13C3421.21 552.01 3441.16 556.95 3463.58 556.95ZM3738.75 594C3731.91 594 3726.4 592.1 3722.22 588.3C3718.42 584.12 3716.52 578.61 3716.52 571.77V304.44C3716.52 297.6 3718.42 292.28 3722.22 288.48C3726.4 284.3 3731.91 282.21 3738.75 282.21C3745.21 282.21 3750.34 284.3 3754.14 288.48C3758.32 292.28 3760.41 297.6 3760.41 304.44V571.77C3760.41 578.61 3758.32 584.12 3754.14 588.3C3750.34 592.1 3745.21 594 3738.75 594ZM3738.18 222.93C3729.82 222.93 3722.6 219.89 3716.52 213.81C3710.44 207.73 3707.4 200.32 3707.4 191.58C3707.4 182.08 3710.44 174.67 3716.52 169.35C3722.98 163.65 3730.39 160.8 3738.75 160.8C3746.73 160.8 3753.76 163.65 3759.84 169.35C3766.3 174.67 3769.53 182.08 3769.53 191.58C3769.53 200.32 3766.49 207.73 3760.41 213.81C3754.33 219.89 3746.92 222.93 3738.18 222.93ZM3994.14 594C3974 594 3955.95 589.25 3939.99 579.75C3924.41 570.25 3912.06 557.33 3902.94 540.99C3893.82 524.27 3889.26 505.27 3889.26 483.99V331.8H3852.21C3846.51 331.8 3841.76 330.09 3837.96 326.67C3834.16 322.87 3832.26 318.31 3832.26 312.99C3832.26 307.29 3834.16 302.73 3837.96 299.31C3841.76 295.51 3846.51 293.61 3852.21 293.61H3889.26V205.26C3889.26 198.8 3891.16 193.48 3894.96 189.3C3899.14 185.12 3904.46 183.03 3910.92 183.03C3917.38 183.03 3922.7 185.12 3926.88 189.3C3931.06 193.48 3933.15 198.8 3933.15 205.26V293.61H3997.56C4003.26 293.61 4008.01 295.51 4011.81 299.31C4015.61 302.73 4017.51 307.29 4017.51 312.99C4017.51 318.31 4015.61 322.87 4011.81 326.67C4008.01 330.09 4003.26 331.8 3997.56 331.8H3933.15V483.99C3933.15 503.37 3938.85 519.33 3950.25 531.87C3961.65 544.03 3976.28 550.11 3994.14 550.11H4009.53C4015.61 550.11 4020.55 552.2 4024.35 556.38C4028.15 560.56 4030.05 565.88 4030.05 572.34C4030.05 578.8 4027.77 584.12 4023.21 588.3C4018.65 592.1 4012.95 594 4006.11 594H3994.14ZM4238.87 596.85C4209.61 596.85 4183.39 590.01 4160.21 576.33C4137.03 562.27 4118.6 543.27 4104.92 519.33C4091.62 495.39 4084.97 468.41 4084.97 438.39C4084.97 407.99 4091.81 380.82 4105.49 356.88C4119.55 332.94 4138.55 314.13 4162.49 300.45C4186.43 286.39 4213.41 279.36 4243.43 279.36C4273.45 279.36 4300.24 286.39 4323.8 300.45C4347.74 314.13 4366.55 332.94 4380.23 356.88C4394.29 380.82 4401.51 407.99 4401.89 438.39V572.34C4401.89 578.8 4399.8 584.12 4395.62 588.3C4391.44 592.1 4386.12 594 4379.66 594C4373.2 594 4367.88 592.1 4363.7 588.3C4359.52 584.12 4357.43 578.8 4357.43 572.34V537.57C4344.51 555.81 4327.79 570.25 4307.27 580.89C4286.75 591.53 4263.95 596.85 4238.87 596.85ZM4243.43 556.95C4265.47 556.95 4285.04 551.82 4302.14 541.56C4319.62 531.3 4333.3 517.24 4343.18 499.38C4353.44 481.14 4358.57 460.81 4358.57 438.39C4358.57 415.59 4353.44 395.26 4343.18 377.4C4333.3 359.54 4319.62 345.48 4302.14 335.22C4285.04 324.58 4265.47 319.26 4243.43 319.26C4221.77 319.26 4202.2 324.58 4184.72 335.22C4167.24 345.48 4153.37 359.54 4143.11 377.4C4132.85 395.26 4127.72 415.59 4127.72 438.39C4127.72 460.81 4132.85 481.14 4143.11 499.38C4153.37 517.24 4167.24 531.3 4184.72 541.56C4202.2 551.82 4221.77 556.95 4243.43 556.95ZM4554.51 594C4531.71 594 4512.9 584.88 4498.08 566.64C4483.26 548.02 4475.85 524.27 4475.85 495.39V170.49C4475.85 164.03 4477.75 158.9 4481.55 155.1C4485.73 150.92 4491.05 148.83 4497.51 148.83C4503.97 148.83 4509.1 150.92 4512.9 155.1C4517.08 158.9 4519.17 164.03 4519.17 170.49V495.39C4519.17 511.73 4522.4 525.03 4528.86 535.29C4535.7 545.55 4544.25 550.68 4554.51 550.68H4568.76C4574.46 550.68 4579.02 552.77 4582.44 556.95C4585.86 560.75 4587.57 565.88 4587.57 572.34C4587.57 578.8 4585.1 584.12 4580.16 588.3C4575.6 592.1 4569.52 594 4561.92 594H4554.51Z"
    fill="#212121"></path>
</svg>
