<?xml version="1.0" standalone="no"?>
<!DOCTYPE svg PUBLIC "-//W3C//DTD SVG 20010904//EN"
 "http://www.w3.org/TR/2001/REC-SVG-20010904/DTD/svg10.dtd">
<svg version="1.0" xmlns="http://www.w3.org/2000/svg"
 width="1002.000000pt" height="1002.000000pt" viewBox="0 0 1002.000000 1002.000000"
 preserveAspectRatio="xMidYMid meet">
<metadata>
Created by potrace 1.14, written by Peter Selinger 2001-2017
</metadata>
<g transform="translate(0.000000,1002.000000) scale(0.100000,-0.100000)"
fill="#000000" stroke="none">
<path d="M2025 10010 c-33 -4 1310 -7 2985 -7 1675 0 3016 3 2980 7 -81 9
-5883 9 -5965 0z"/>
<path d="M1260 8125 l0 -475 3750 0 3750 0 0 475 0 475 -3750 0 -3750 0 0
-475z"/>
<path d="M4735 7095 c-310 -37 -564 -132 -807 -301 -113 -79 -356 -325 -435
-441 -237 -346 -350 -688 -392 -1178 -41 -469 39 -992 205 -1340 181 -379 421
-628 769 -795 258 -124 516 -180 835 -180 324 0 612 61 847 178 133 67 241
149 403 308 l136 133 64 -260 64 -259 178 0 178 0 0 1085 0 1085 -890 0 -890
0 0 -230 0 -230 636 0 636 0 -7 -87 c-29 -400 -106 -631 -282 -846 -141 -171
-382 -307 -655 -368 -131 -29 -440 -38 -588 -15 -309 46 -569 180 -719 371
-239 305 -361 722 -361 1235 1 637 174 1094 524 1379 255 208 512 290 871 278
179 -6 291 -23 428 -67 348 -111 567 -338 662 -685 l22 -80 275 -3 276 -2 -19
87 c-74 340 -182 557 -381 768 -287 304 -771 478 -1318 474 -85 -1 -204 -7
-265 -14z"/>
<path d="M1260 1875 l0 -475 3750 0 3750 0 0 475 0 475 -3750 0 -3750 0 0
-475z"/>
</g>
</svg>
