<?xml version="1.0" encoding="UTF-8"?>
<svg id="Capa_1" data-name="Capa 1" xmlns="http://www.w3.org/2000/svg" viewBox="0 0 50.48 9.4">
  <defs>
    <style>
      .cls-1 {
        fill: #fff;
      }
    </style>
  </defs>
  <path class="cls-1" d="m0,0h1.26v3.9c.35-.82,1.13-1.26,2.11-1.26,1.48,0,2.44,1.07,2.44,2.63v4.03h-1.26v-3.78c0-1.04-.61-1.74-1.53-1.74-1.03,0-1.76.83-1.76,1.98v3.55H0V0Z"/>
  <path class="cls-1" d="m12.71,5.07v4.23h-1.26v-1.07c-.31.7-1.14,1.17-2.13,1.17-1.34,0-2.22-.81-2.22-1.98,0-1.26,1-2.04,2.55-2.04h1.37c.3,0,.44-.16.44-.39,0-.79-.57-1.34-1.59-1.34-.91,0-1.57.57-1.61,1.23h-1.17c.1-1.29,1.27-2.25,2.82-2.25,1.69,0,2.81.98,2.81,2.43Zm-1.26,1.35v-.16h-1.69c-.86,0-1.42.44-1.42,1.13,0,.6.49,1,1.22,1,1.2,0,1.89-.77,1.89-1.98Z"/>
  <path class="cls-1" d="m13.79,6.02c0-1.95,1.13-3.38,3.13-3.38.9,0,1.69.43,2.08,1.07V0h1.26v9.3h-1.26v-.98c-.39.65-1.2,1.08-2.07,1.08-2.02,0-3.15-1.43-3.15-3.38Zm5.3,0c0-1.36-.79-2.27-2.02-2.27s-2,.91-2,2.27.79,2.28,2,2.28,2.02-.91,2.02-2.28Z"/>
  <path class="cls-1" d="m21.55,6.02c0-1.95,1.13-3.38,3.13-3.38.9,0,1.69.43,2.08,1.07V0h1.26v9.3h-1.26v-.98c-.39.65-1.2,1.08-2.07,1.08-2.02,0-3.15-1.43-3.15-3.38Zm5.3,0c0-1.36-.79-2.27-2.02-2.27s-2,.91-2,2.27.79,2.28,2,2.28,2.02-.91,2.02-2.28Z"/>
  <path class="cls-1" d="m29.31,6.02c0-1.96,1.42-3.38,3.38-3.38s3.37,1.42,3.37,3.38-1.4,3.38-3.37,3.38-3.38-1.42-3.38-3.38Zm5.46,0c0-1.34-.84-2.27-2.08-2.27s-2.09.94-2.09,2.27.84,2.28,2.09,2.28,2.08-.94,2.08-2.28Z"/>
  <path class="cls-1" d="m36.92,6.02c0-1.81,1.18-3.38,3.25-3.38,1.53,0,2.86.91,3.04,2.39h-1.26c-.12-.74-.87-1.29-1.75-1.29-1.31,0-1.96,1.01-1.96,2.27s.66,2.28,1.96,2.28c.9,0,1.56-.47,1.77-1.21h1.25c-.21,1.38-1.38,2.31-3.04,2.31-2.07,0-3.25-1.57-3.25-3.38Z"/>
  <path class="cls-1" d="m46.57,6.16l-.82.75v2.38h-1.27V0h1.27v5.36l2.85-2.61h1.64l-2.76,2.56,3,3.99h-1.56l-2.35-3.13Z"/>
</svg>